<svg xmlns="http://www.w3.org/2000/svg" viewBox="0 0 483.52 108.33"><defs><style>.cls-1{fill:#136fa0;}.cls-2{fill:#126fa0;}.cls-3{fill:#0f2d3f;}.cls-4{fill:#126f9f;}.cls-5{fill:#d0d0d0;}.cls-6{fill:#0c1f32;}.cls-7{fill:#8f8f8f;}.cls-8{fill:#113041;}.cls-9{fill:#102e40;}.cls-10{fill:#0d2c3d;}.cls-11{fill:#abb3b7;}.cls-12{fill:#0a2a3b;}.cls-13{fill:#072739;}.cls-14{fill:#112438;}.cls-15{fill:#143243;}.cls-16{fill:#173545;}.cls-17{fill:#123142;}.cls-18{fill:#304a59;}.cls-19{fill:#0b1f33;}.cls-20{fill:#24526d;}.cls-21{fill:#e6e7e9;}.cls-22{fill:#123d5d;}</style></defs><g id="Layer_2" data-name="Layer 2"><g id="Layer_1-2" data-name="Layer 1"><path class="cls-1" d="M306.05,81.32c-2.61-7.47-5.22-14.92-7.89-22.55-.93,2.69-1.81,5.22-2.69,7.74-1.64,4.73-3.27,9.45-4.93,14.17a1,1,0,0,1-.71.61c-3,0-6,0-9.05,0C276.4,68.14,272,55,267.64,41.78h11.57c2.25,7.43,4.5,14.89,6.82,22.57,1.09-3.28,2.1-6.33,3.11-9.39,1.39-4.18,2.79-8.37,4.15-12.57a1,1,0,0,1,1.15-.86q3.85.07,7.72,0c.69,0,.93.25,1.13.86,2.32,7,4.67,14.07,7,21.1.07.2.15.39.3.79.82-2.69,1.58-5.2,2.33-7.7q2.15-7,4.26-14.1c.12-.38.15-.76.73-.75,3.44,0,6.88,0,10.32,0a2.12,2.12,0,0,1,.44.09c-.09.31-.16.61-.26.89q-6.26,18.9-12.51,37.81c-.2.61-.44.87-1.15.86C311.87,81.29,309,81.32,306.05,81.32Z"/><path class="cls-1" d="M175.67,59.88v21H164.91V41.74h.91c2.79,0,5.58,0,8.37,0a1.62,1.62,0,0,1,1.45.73c5,6.44,10,12.84,15,19.26l.47.56V41.81H202V81h-.88c-2.63,0-5.27,0-7.9,0a1.45,1.45,0,0,1-1.3-.66q-7.69-9.89-15.42-19.76c-.2-.26-.42-.5-.63-.75Z"/><path class="cls-1" d="M209,81V41.74h1c5.14,0,10.28,0,15.42,0a24.47,24.47,0,0,1,10.92,2.56A17.26,17.26,0,0,1,246,57.65a19.84,19.84,0,0,1-2.68,14.24c-3.11,4.85-7.79,7.4-13.3,8.48a35.37,35.37,0,0,1-6.09.56c-4.64.08-9.29,0-13.93,0Zm11-29.53v20a66.29,66.29,0,0,0,6.82-.33c4-.61,6.93-2.64,7.95-6.75a14.38,14.38,0,0,0,.3-3.77,8.78,8.78,0,0,0-6.27-8.4C225.9,51.16,223,51.49,220,51.42Z"/><path class="cls-2" d="M117.05,81h-5.26c-2.36,0-4.71,0-7.06,0a1.31,1.31,0,0,1-1.29-.64c-3-4.42-6-8.82-8.94-13.22-.14-.2-.29-.39-.47-.65-1.26,1.39-2.49,2.72-3.67,4.1a1.72,1.72,0,0,0-.26,1c0,2.75,0,5.51,0,8.26V80.9H79.2V41.8H90.07V57.3l.2.06c.84-1,1.67-2,2.51-2.93Q98,48.36,103.15,42.28a1.49,1.49,0,0,1,1-.52c4,0,7.93,0,11.89,0l.52,0L101.68,58.62Z"/><path class="cls-1" d="M373.74,81c-3.77,0-7.45,0-11.14,0a1.07,1.07,0,0,1-.74-.58c-.91-2.13-1.76-4.27-2.65-6.45-4.89,0-9.75,0-14.61,0-.25,0-.61.35-.72.62-.88,2.11-1.7,4.24-2.55,6.37H329.82c1.1-2.63,2.18-5.18,3.26-7.73q6.54-15.48,13.08-31a1.15,1.15,0,0,1,1.26-.87c3,0,5.95,0,8.92,0a.87.87,0,0,1,1,.58q8.15,19.32,16.33,38.64A3.57,3.57,0,0,1,373.74,81ZM356.06,65.5c-1.45-3.7-2.87-7.29-4.34-11-1.5,3.77-2.93,7.37-4.38,11Z"/><path class="cls-1" d="M161.09,81c-3.81,0-7.5,0-11.18,0a1.09,1.09,0,0,1-.75-.58c-.91-2.12-1.77-4.27-2.66-6.46h-9.21c-1.73,0-3.47,0-5.2,0a.85.85,0,0,0-1,.64c-.73,1.93-1.5,3.86-2.29,5.77-.1.26-.4.63-.61.63-3.67,0-7.35,0-11.15,0,.93-2.2,1.8-4.3,2.69-6.39q6.85-16.2,13.7-32.41a1.1,1.1,0,0,1,1.22-.8c3,0,6,0,8.92,0a.94.94,0,0,1,1,.66q8.1,19.2,16.22,38.39ZM139,54.46l-4.39,11h8.72C141.91,61.83,140.49,58.23,139,54.46Z"/><path class="cls-1" d="M75.37,81c-3.83,0-7.55,0-11.26,0a1,1,0,0,1-.67-.57c-.81-1.9-1.6-3.81-2.34-5.74A1,1,0,0,0,60,73.88q-6.78,0-13.56,0a1,1,0,0,0-1.08.72c-.73,1.93-1.5,3.86-2.29,5.77a1,1,0,0,1-.67.56c-3.64,0-7.29,0-11.06,0l2.68-6.39q6.87-16.2,13.71-32.41a1.1,1.1,0,0,1,1.21-.8c3,0,6,0,8.92,0a.93.93,0,0,1,1,.65q8.11,19.24,16.25,38.48A4.91,4.91,0,0,1,75.37,81ZM53.3,54.46l-4.38,11h8.7C56.19,61.81,54.78,58.24,53.3,54.46Z"/><path class="cls-3" d="M386.94,89.22H.8V87.66H387.48Z"/><path class="cls-4" d="M0,41.78H10.87V71.45h19v9.44H0Z"/><path class="cls-4" d="M252.17,41.78H263V80.9H252.17Z"/><path class="cls-5" d="M456.09,6.49c1.05-.88,2.05-1.82,3.15-2.63s2-.29,2.08,1.1a30.5,30.5,0,0,1-2.39,3.22q-5.46,5.75-11,11.38a72.85,72.85,0,0,0-8.39,9.26c-1.53,2.17-2.93,4.42-4.39,6.63a1.09,1.09,0,0,0-.23.14c-2,1.94-3.88,4.07-6.51,5.27-.17.08-.19.51-.29.78a3.56,3.56,0,0,0,.79.24,1,1,0,0,0,.5-.22A28.52,28.52,0,0,0,435.66,36L439,38.62c.45.88-.09,1.6-.55,2.2-1.39,1.81-2.86,3.57-4.34,5.31a3.93,3.93,0,0,1-1.33,1,3,3,0,0,1-1.19,0l-8-6.67a9.92,9.92,0,0,1,.88-2.36c1-1.41,2.11-2.73,3.24-4a12.42,12.42,0,0,1,2-1.86c.31-.24.84-.19,1.27-.27l1.27,1.15c.12-.18.18-.29.26-.39,6.7-8.07,13.6-16,21.06-23.36C454.51,8.44,455.27,7.44,456.09,6.49Z"/><path class="cls-6" d="M435.11,35.45c1.46-2.21,2.86-4.46,4.39-6.63a72.85,72.85,0,0,1,8.39-9.26q5.6-5.62,11-11.38A30.5,30.5,0,0,0,461.32,5l1.27,1c.1.11.19.24.29.35.89.94.9,1,.2,2.13-.43.65-.83,1.31-1.24,2l-.36.48c-.65.9-1.28,1.8-1.94,2.69q-2.88,3.88-5.78,7.76c-2.5,3-5,6.09-7.51,9.11-2.18,2.62-4.41,5.22-6.63,7.81a2.44,2.44,0,0,1-.61.38L435.66,36Z"/><path class="cls-7" d="M464.69,12.57a53.45,53.45,0,0,1,15,20.71,51.36,51.36,0,0,1,3.72,23.33,52.09,52.09,0,0,1-17.67,36.14A51.17,51.17,0,0,1,438,105.66,52.66,52.66,0,0,1,398.86,96a54.14,54.14,0,0,1-8.56-7.8l.86-.53a7.32,7.32,0,0,0,.69.87c2.31,2.1,4.51,4.35,7,6.23a51.54,51.54,0,0,0,28.57,10.5,50.7,50.7,0,0,0,12.65-.84,52.26,52.26,0,0,0,25.94-13,51.17,51.17,0,0,0,12.15-16.92,52.25,52.25,0,0,0-9.41-57.11c-1.36-1.47-2.84-2.83-4.26-4.25l.14-.41A.76.76,0,0,1,464.69,12.57Z"/><path class="cls-7" d="M388.58,86a50.36,50.36,0,0,1-8.1-14.3,50.76,50.76,0,0,1-3.24-15.54c-.69-15.19,4.05-28.43,14.47-39.52A51.59,51.59,0,0,1,421.83.71,52.82,52.82,0,0,1,454.8,6a4.7,4.7,0,0,1,.76.59l-.18.3a2.43,2.43,0,0,1-.52-.17A50.69,50.69,0,0,0,428.68.73,58.75,58.75,0,0,0,418.77,2,50.6,50.6,0,0,0,389.5,20.21C379.37,33,376,47.56,379,63.55A50.19,50.19,0,0,0,389,85.08Z"/><path class="cls-8" d="M168.47,21.58v-9h1.42V33h-1.36V30.05l-1,1.09a6.32,6.32,0,0,1-6.73,2,6.75,6.75,0,0,1-5-5.16,7.65,7.65,0,0,1,4-9,6.68,6.68,0,0,1,7.91,1.84Zm.08,4.94c0-4.74-3.64-7.66-7.43-6.54a5.21,5.21,0,0,0-3.76,4.17,6.37,6.37,0,0,0,1.85,6.52,5.11,5.11,0,0,0,5.88.81A5.63,5.63,0,0,0,168.55,26.52Z"/><path class="cls-9" d="M285.59,25.77V33h-1.52V13.18c3.32.18,6.64.12,9.88.6a5.29,5.29,0,0,1,4.59,5.29,5.72,5.72,0,0,1-3.94,6,15.76,15.76,0,0,1-4,.71C289,25.86,287.34,25.77,285.59,25.77Zm0-1.34c2.45-.1,4.84,0,7.19-.34A4.58,4.58,0,0,0,297,19.56a4.32,4.32,0,0,0-4.1-4.56c-2.39-.32-4.85-.24-7.31-.33Z"/><path class="cls-9" d="M60.22,25.77V33H58.71V13.19c3.31.17,6.61.1,9.82.58a5.29,5.29,0,0,1,4.65,5.33,5.68,5.68,0,0,1-4.05,6,15.56,15.56,0,0,1-3.9.68C63.61,25.85,62,25.77,60.22,25.77Zm0-1.34c2.49-.1,4.91,0,7.29-.35a4.57,4.57,0,0,0,4.13-4.52,4.31,4.31,0,0,0-4-4.54c-2.42-.33-4.9-.26-7.4-.36Z"/><path class="cls-9" d="M230.73,25.77V33h-1.5V13.35H231c2.44.06,4.9,0,7.32.23a5.52,5.52,0,0,1,5,3.75,5.76,5.76,0,0,1-1.18,6.13c-1.68,1.79-3.91,2.25-6.26,2.3C234.2,25.8,232.5,25.77,230.73,25.77Zm0-1.33c2.5-.11,4.92-.05,7.3-.36a4.57,4.57,0,0,0,4.12-4.53,4.18,4.18,0,0,0-3.57-4.43c-2.57-.39-5.2-.35-7.85-.5Z"/><path class="cls-10" d="M333.81,18.73h1.33v3c.33-.37.51-.55.68-.75a6.35,6.35,0,0,1,6.95-2.36,6.74,6.74,0,0,1,5.11,5.55,7.63,7.63,0,0,1-3.46,8.34,6.69,6.69,0,0,1-8.62-1.6l-.63-.75v7.33h-1.36Zm1.29,7.19a6,6,0,0,0,4.87,6,5.4,5.4,0,0,0,6.19-3.68c1-3.09-.13-6.47-2.67-7.85C339.66,18.32,335.09,21.33,335.1,25.92Z"/><path class="cls-11" d="M388.58,86l.39-.93c1.23-1.95,2.4-3.94,3.71-5.84,1-1.41,2.12-2.7,3.2-4l4.82,4.11a.59.59,0,0,0,0,.13c-1.32,1.32-2.65,2.63-4,4a7.75,7.75,0,0,0-.71,1,.11.11,0,0,1-.1.1l-.46.19h0l-.19.19h0l-.38.37h0l-.38.19h0l-.2.19h0l-.2.19h0l-.2.2h0l-.39.2-2.47,1.47-.86.53L388,89.59a.65.65,0,0,1-1.07-.37l.54-1.56Z"/><path class="cls-10" d="M112.08,30.17l.94-1.09c.64.47,1.2.94,1.81,1.35a8.57,8.57,0,0,0,7.08,1.27,5.06,5.06,0,0,0,2.2-1.28,3.25,3.25,0,0,0-.77-5.25A32.42,32.42,0,0,0,119,23.76a30.62,30.62,0,0,1-3-1,4.5,4.5,0,0,1-3.1-4.49A4.75,4.75,0,0,1,116,13.78a9.29,9.29,0,0,1,8.14.45,20.35,20.35,0,0,1,1.9,1.23l-1,1.21a9.28,9.28,0,0,0-4.55-2.12,6.6,6.6,0,0,0-4.32.66,3.39,3.39,0,0,0-1.81,3.12,2.94,2.94,0,0,0,1.93,2.9c1.45.58,3,.92,4.49,1.39a30.76,30.76,0,0,1,3,1,4.39,4.39,0,0,1,2.81,4.12,4.82,4.82,0,0,1-2.37,4.45c-2.51,1.54-5.2,1.38-7.88.56A10.83,10.83,0,0,1,112.08,30.17Z"/><path class="cls-10" d="M186.54,26.43H174.72a5.34,5.34,0,0,0,2.67,4.88c2.92,1.51,5.43.69,7.7-1.48l.58.48c.12.09.26.17.37.24-2.12,3.21-7.38,3.8-10.38,1.26a8.11,8.11,0,0,1-.34-11.6,6.34,6.34,0,0,1,6.7-1.49c2.55.86,3.79,2.85,4.29,5.37C186.45,24.8,186.46,25.55,186.54,26.43Zm-1.7-1.26c0-3.19-2.26-5.57-5.11-5.5a5.43,5.43,0,0,0-5.06,5.5Z"/><path class="cls-10" d="M313.9,26.44H302a5.53,5.53,0,0,0,2.82,4.86c2.88,1.57,5.42.7,7.68-1.48l1,.84a7.4,7.4,0,0,1-7,2.66,6.62,6.62,0,0,1-5.73-5.23,7.73,7.73,0,0,1,2-7.88,6.21,6.21,0,0,1,6.69-1.48c2.55.86,3.79,2.84,4.28,5.36C313.81,24.81,313.82,25.56,313.9,26.44Zm-1.67-1.27c-.18-3.48-2.52-5.78-5.46-5.48-2.66.26-5,3-4.69,5.48Z"/><path class="cls-10" d="M369.87,26.46H358a5.39,5.39,0,0,0,3,5c2.81,1.32,5.21.47,7.39-1.62l.48.39.51.36a7.53,7.53,0,0,1-7.93,2.55,7.14,7.14,0,0,1-5-6.16,7.86,7.86,0,0,1,2.25-6.79,6.27,6.27,0,0,1,6.62-1.47c2.56.84,3.81,2.82,4.32,5.33C369.78,24.78,369.78,25.56,369.87,26.46Zm-1.63-1.3c-.18-2.09-.87-3.86-2.74-4.89a4.57,4.57,0,0,0-5.09.28,5.75,5.75,0,0,0-2.47,4.61Z"/><path class="cls-10" d="M48,26.44H36.08a5.52,5.52,0,0,0,2.81,4.86c2.89,1.57,5.43.69,7.68-1.48l1,.85a7.44,7.44,0,0,1-7.09,2.63,6.61,6.61,0,0,1-5.64-5.22,7.71,7.71,0,0,1,2-7.87,6.19,6.19,0,0,1,6.69-1.48c2.55.86,3.79,2.85,4.28,5.37C47.93,24.82,47.94,25.56,48,26.44Zm-11.9-1.27H46.3a5.16,5.16,0,0,0-4.86-5.5A5.48,5.48,0,0,0,36.12,25.17Z"/><path class="cls-12" d="M19.22,12.56h1.34v8.52a3.37,3.37,0,0,0,.35-.32,6,6,0,0,1,6.71-2.15,5.19,5.19,0,0,1,3.8,4.95c.09,3.12,0,6.24,0,9.42H30V24.6c0-3-1.61-4.81-4.27-4.93a4.81,4.81,0,0,0-5.13,4.63c-.13,1.75-.06,3.52-.08,5.28V33H19.22Z"/><path class="cls-3" d="M84.76,25.94a7.37,7.37,0,1,1,14.73-.16,7.4,7.4,0,0,1-7.4,7.63A7.29,7.29,0,0,1,84.76,25.94ZM98,25.9a6,6,0,0,0-5.92-6.2,5.88,5.88,0,0,0-5.76,6.11A5.85,5.85,0,1,0,98,25.9Z"/><path class="cls-3" d="M255.27,25.9A7.36,7.36,0,1,1,270,25.82a7.39,7.39,0,0,1-7.44,7.59A7.28,7.28,0,0,1,255.27,25.9Zm13.2,0a6,6,0,0,0-5.89-6.24,5.87,5.87,0,0,0-5.79,6.08,5.85,5.85,0,1,0,11.68.16Z"/><path class="cls-3" d="M315.88,25.89a7.37,7.37,0,1,1,14.73-.06,7.4,7.4,0,0,1-7.46,7.58A7.29,7.29,0,0,1,315.88,25.89Zm1.53-.13a6,6,0,0,0,5.79,6.31A6,6,0,0,0,329.08,26a6,6,0,0,0-5.86-6.26A5.87,5.87,0,0,0,317.41,25.76Z"/><path class="cls-10" d="M150.8,18.74h1.41V33h-1.38V30.55a6.15,6.15,0,0,1-4.07,2.78c-3.55.64-6.56-1.49-6.77-5.07-.18-3.14,0-6.29,0-9.5h1.37c0,2.37,0,4.74,0,7.12,0,.61,0,1.24,0,1.85a4.29,4.29,0,0,0,4.09,4.35,4.85,4.85,0,0,0,5.16-3.61,7.09,7.09,0,0,0,.2-1.65C150.81,24.14,150.8,21.45,150.8,18.74Z"/><path class="cls-12" d="M201.78,33h-1.43v-.92c0-2.53,0-5.07,0-7.61,0-2.89-1.66-4.71-4.29-4.81A4.77,4.77,0,0,0,191,24.14c-.15,2.53-.07,5.07-.09,7.6V33h-1.36V18.76h1.36v2.47a6,6,0,0,1,4.05-2.79c3.73-.66,6.73,1.67,6.83,5.43C201.85,26.89,201.78,29.92,201.78,33Z"/><path class="cls-13" d="M1.53,14.78V13.4H16.7v1.35H9.89V33H8.42V14.78Z"/><path class="cls-3" d="M130.72,20h-2V18.73h2V14.17h1.43v4.5h5V20h-4.91c0,.32-.05.58-.05.85,0,2.68.08,5.38,0,8.06s1.78,3.39,3.91,2.94c.33-.07.64-.2,1-.3.24,1.28.18,1.47-.94,1.63a8.21,8.21,0,0,1-2.57,0,3.44,3.44,0,0,1-2.79-3.65c0-2.84,0-5.69,0-8.53Z"/><path class="cls-3" d="M206.4,20h-2V18.75h2V14.16h1.47v4.52h5V20h-5V21.4c0,2.5.08,5,0,7.51-.11,2.7,1.76,3.38,3.92,2.92.33-.07.64-.2,1-.3.21,1.32.14,1.47-1.06,1.66a6.67,6.67,0,0,1-1.84.06,3.5,3.5,0,0,1-3.42-3.84c0-2.81,0-5.62,0-8.44Z"/><path class="cls-14" d="M455.38,6.85l.18-.3.53-.06c-.82,1-1.58,1.95-2.47,2.83-7.46,7.39-14.36,15.29-21.06,23.36-.08.1-.14.21-.26.39L431,31.92c2.57-2.84,5.11-5.69,7.69-8.51,2.13-2.31,4.31-4.58,6.46-6.88a1.9,1.9,0,0,0,.37-.26c1.82-1.77,3.61-3.56,5.44-5.32C452.43,9.57,453.92,8.22,455.38,6.85Z"/><path class="cls-12" d="M248.15,33H246.8V18.74h1.31V22.2c1.58-2.24,3.48-3.75,6.37-3.71v1.45a19.35,19.35,0,0,0-2,.38A6.19,6.19,0,0,0,248.25,26c-.12,2-.08,4-.1,5.94C248.14,32.31,248.15,32.65,248.15,33Z"/><path class="cls-12" d="M77.46,33H76.12V18.75h1.33V22.2C79,20,80.89,18.45,83.79,18.48V20c-.33,0-.69.06-1,.12A6.17,6.17,0,0,0,77.56,26c-.12,2-.07,4-.1,5.94C77.45,32.3,77.46,32.64,77.46,33Z"/><path class="cls-9" d="M351.47,12.54h1.35V33h-1.35Z"/><path class="cls-15" d="M38.19,94.84a5.41,5.41,0,0,1,5.44,5.49,5.45,5.45,0,1,1-5.44-5.49Zm4.58,5.63a4.6,4.6,0,1,0-4.56,4.8A4.56,4.56,0,0,0,42.77,100.47Z"/><path class="cls-15" d="M168,104.44c-.19,1.34-.19,1.34-.8,1.33V94.67c.69-.12.71-.12.71.53,0,1.39,0,2.78,0,4.36.92-1,1.76-1.75,3.06-1.76a3.7,3.7,0,0,1,3.15,1.46,4.37,4.37,0,0,1-.5,5.81C171.94,106.54,170,106.32,168,104.44Zm3.07.84a3.08,3.08,0,0,0,3.1-3.31A3.25,3.25,0,0,0,171,98.5a3.36,3.36,0,0,0-3.22,3.4A3.3,3.3,0,0,0,171,105.28Z"/><path class="cls-15" d="M363.52,94.62c.59-.22.72,0,.72.55,0,1.41,0,2.82,0,4.47,1-1.26,2.11-2.11,3.57-1.79a5.22,5.22,0,0,1,2.47,1.27A4.25,4.25,0,0,1,370,105c-1.66,1.57-3.78,1.37-5.8-.67a4.52,4.52,0,0,1,0,1.06c-.06.22-.3.38-.46.58l-.23-.16Zm3.91,10.66a3.09,3.09,0,0,0,3.06-3.36,3.24,3.24,0,0,0-3.15-3.42,3.36,3.36,0,0,0-3.17,3.44A3.29,3.29,0,0,0,367.43,105.28Z"/><path class="cls-8" d="M118.27,105.79h-.76v-1.62c-1,1.24-2.07,2.09-3.48,1.8a5.26,5.26,0,0,1-2.5-1.23,4.24,4.24,0,0,1,.15-5.86c1.61-1.59,3.7-1.42,5.81.54V94.67c.5-.23.79-.24.79.4C118.27,98.62,118.27,102.17,118.27,105.79Zm-.72-3.89a3.27,3.27,0,0,0-3.18-3.4,3.1,3.1,0,0,0-3.08,3.43,3.13,3.13,0,0,0,3.08,3.35A3.25,3.25,0,0,0,117.55,101.9Z"/><path class="cls-16" d="M86.48,104.25l.5-.58a5.31,5.31,0,0,0,3.65,1.57,5.43,5.43,0,0,0,1.79-.36A1.83,1.83,0,0,0,93.57,103a1.66,1.66,0,0,0-1.21-1.68c-.75-.28-1.53-.45-2.3-.68a14.39,14.39,0,0,1-1.49-.48,2.53,2.53,0,0,1-1.7-2.61,2.88,2.88,0,0,1,2.25-2.53A5.32,5.32,0,0,1,94,96.12c-.38.68-.38.68-1,.31a4.38,4.38,0,0,0-3.79-.64,2,2,0,0,0-1.55,1.86,1.82,1.82,0,0,0,1.39,1.86c1.09.35,2.21.58,3.29,1a2.5,2.5,0,0,1,2,2.65A2.86,2.86,0,0,1,92,105.84,6,6,0,0,1,86.48,104.25Z"/><path class="cls-10" d="M250.43,95.08h.78c0,1.87,0,3.74,0,5.62a8.29,8.29,0,0,0,.1,1.57,3.41,3.41,0,0,0,4,3,3.32,3.32,0,0,0,3.16-3.57c0-2.19,0-4.38,0-6.63.5-.06.86-.15.84.56,0,2.1,0,4.2-.08,6.3a4.09,4.09,0,0,1-4.45,4.09,4.18,4.18,0,0,1-4.34-4.24v-6.7Z"/><path class="cls-16" d="M71.31,99.13l-.22-.6a5.51,5.51,0,0,1,3.52-.63,2.73,2.73,0,0,1,2.53,2.83c0,1.52,0,3,0,4.55,0,.22-.28.44-.43.66l-.26-.13-.1-1-.61.42a3.76,3.76,0,0,1-3.51.62,2.48,2.48,0,0,1-1.9-2.26,2.27,2.27,0,0,1,1.84-2.36,18.11,18.11,0,0,1,3.22-.15,5.31,5.31,0,0,1,.89.13C76.63,98.82,74.7,98,71.31,99.13Zm5,2.62a35.38,35.38,0,0,0-3.57,0,1.69,1.69,0,0,0-1.61,1.73,1.89,1.89,0,0,0,1.65,1.73C74.46,105.56,76.83,104.64,76.32,101.75Z"/><path class="cls-16" d="M197.15,101.21c.41-1.91-1.41-3.55-4.92-2.08-.31-.35-.4-.72.18-.82a12.57,12.57,0,0,1,3.09-.38,2.53,2.53,0,0,1,2.47,2.56c.09,1.76,0,3.52,0,5.31h-.7l-.1-1-.63.46a3.77,3.77,0,0,1-3.7.53,2.42,2.42,0,0,1-1.68-2.23,2.23,2.23,0,0,1,1.7-2.28,20.06,20.06,0,0,1,3.39-.18A5.18,5.18,0,0,1,197.15,101.21Zm0,.56a34.49,34.49,0,0,0-3.66,0,1.59,1.59,0,0,0-1.49,1.63,1.79,1.79,0,0,0,1.48,1.76C195.15,105.63,197.74,104.69,197.16,101.77Z"/><path class="cls-3" d="M149.13,101.79v4c-.42.12-.79.27-.78-.42,0-3.39,0-6.79,0-10.37a50.63,50.63,0,0,1,5.27.28,2.86,2.86,0,0,1,2.61,2.89,3.13,3.13,0,0,1-2.42,3.39,12.54,12.54,0,0,1-2.47.26C150.64,101.82,149.94,101.79,149.13,101.79Zm.05-.75h3a6.23,6.23,0,0,0,.74,0,2.67,2.67,0,0,0,2.54-2.5,2.37,2.37,0,0,0-2.24-2.6,33.82,33.82,0,0,0-4,0Z"/><path class="cls-15" d="M353.49,96.62l-.69.47a4.6,4.6,0,0,0-4.42-1.39,5.75,5.75,0,0,0-2.62,1.58,5.07,5.07,0,0,0,.37,6.76c1.8,1.76,4.31,1.64,6.76-.33.61.45.61.45.07.92a5.53,5.53,0,0,1-7.51-.13,5.85,5.85,0,0,1-.3-7.78,5.55,5.55,0,0,1,7.47-.81C352.87,96.09,353.1,96.3,353.49,96.62Z"/><path class="cls-8" d="M361.62,102.23h-6.41a3,3,0,0,0,1.72,2.76,3.23,3.23,0,0,0,3.49-.43c.33-.24.64-.7,1,0a4,4,0,0,1-4.94,1.06,4.24,4.24,0,0,1-1.91-5,3.68,3.68,0,0,1,3.93-2.83C360.49,98,361.89,99.86,361.62,102.23Zm-6.37-.75h5.61c-.15-1.87-1.21-3-2.79-3A2.94,2.94,0,0,0,355.25,101.48Z"/><path class="cls-8" d="M289,102.22h-6.45a3,3,0,0,0,1.67,2.74,3.28,3.28,0,0,0,3.58-.41,1.46,1.46,0,0,1,.87-.19,3.74,3.74,0,0,1-6,.27,4.25,4.25,0,0,1-.44-4.8,3.44,3.44,0,0,1,3.55-2C287.75,97.93,289.07,99.67,289,102.22Zm-6.44-.75h5.65c-.22-1.91-1.2-3-2.75-3S282.8,99.57,282.52,101.47Z"/><path class="cls-8" d="M127.33,102.23h-6.4a3,3,0,0,0,1.81,2.8,3.22,3.22,0,0,0,3.41-.47c.33-.25.64-.69,1,0a4,4,0,0,1-4.94,1,4.27,4.27,0,0,1-1.89-5,3.68,3.68,0,0,1,3.92-2.73C126.22,98,127.63,99.88,127.33,102.23Zm-6.4-.76h5.66c-.19-1.88-1.18-2.94-2.73-3S121.25,99.54,120.93,101.47Z"/><path class="cls-8" d="M26.93,104.57a4.05,4.05,0,0,1-5.84.39A4.47,4.47,0,0,1,21,98.9a3.56,3.56,0,0,1,6.11,1.93,10.73,10.73,0,0,1,.11,1.38H20.71a3.07,3.07,0,0,0,1.7,2.77,3.24,3.24,0,0,0,3.5-.4C26.22,104.36,26.52,103.84,26.93,104.57Zm-.58-3.07c-.09-1.87-1.22-3.06-2.84-3a2.87,2.87,0,0,0-2.71,3Z"/><path class="cls-17" d="M332.87,101.92a4,4,0,1,1-3.94-4.11A3.92,3.92,0,0,1,332.87,101.92Zm-4,3.38a3.26,3.26,0,0,0,3.24-3.34,3.32,3.32,0,0,0-3.23-3.46,3.25,3.25,0,0,0-3.24,3.34A3.32,3.32,0,0,0,328.85,105.3Z"/><path class="cls-17" d="M212.69,97.8a3.94,3.94,0,0,1,4,4.1,4,4,0,1,1-4-4.1Zm0,7.5a3.27,3.27,0,0,0,3.18-3.4,3.32,3.32,0,0,0-3.29-3.4,3.27,3.27,0,0,0-3.18,3.4A3.31,3.31,0,0,0,212.7,105.3Z"/><path class="cls-17" d="M235.34,97.8a3.94,3.94,0,0,1,4,4.06,4,4,0,1,1-4-4.06Zm0,7.51a3.26,3.26,0,0,0,3.24-3.34,3.32,3.32,0,0,0-3.22-3.47,3.25,3.25,0,0,0-3.24,3.33A3.34,3.34,0,0,0,235.32,105.31Z"/><path class="cls-17" d="M12.07,99a9.17,9.17,0,0,1,2.29-1.09c2.25-.36,3.68,1,3.69,3.26,0,1.54,0,3.08,0,4.67H17.3v-4.32c0-2-.89-3-2.5-3s-2.72,1.2-2.73,3.08c0,1.23,0,2.47,0,3.71,0,.23-.27.45-.41.68l-.27-.13V94.62c.56-.21.72,0,.71.54C12.06,96.46,12.07,97.76,12.07,99Z"/><path class="cls-15" d="M312,98c.61-.28.86.06,1.09.57.93,2.05,1.89,4.09,2.84,6.13l.14.16c.7-1.71,1.38-3.36,2.05-5a10.2,10.2,0,0,1,.61-1.44c.15-.26.5-.39.77-.57l.2.23c-1.25,2.92-2.43,5.86-3.76,8.74-.75,1.61-2.16,2-3.78.89a2.19,2.19,0,0,1,.77-.17c1.27.2,1.84,0,2.36-1.06a1.78,1.78,0,0,0,0-1.34c-1.08-2.36-2.23-4.68-3.35-7C312,98.12,312,98.08,312,98Z"/><path class="cls-17" d="M163.76,104.57A3.31,3.31,0,0,1,161,106a3,3,0,0,1-3.1-3c0-1.64,0-3.28,0-5,.55-.26.77-.14.76.5,0,1.33,0,2.66,0,4,0,1.71.86,2.7,2.35,2.75a2.63,2.63,0,0,0,2.85-2.64c.05-1.36,0-2.73,0-4.09,0-.52.12-.77.72-.55v7.68C163.92,105.83,163.92,105.83,163.76,104.57Z"/><path class="cls-17" d="M107.89,105.72v-1l-.2-.17a4.31,4.31,0,0,1-.51.68,3.17,3.17,0,0,1-3.47.54,2.76,2.76,0,0,1-1.8-2.68c0-1.52,0-3,0-4.55,0-.23.26-.45.39-.68l.34.12c0,1.6,0,3.2,0,4.79a2.6,2.6,0,0,0,5.19,0c0-1.39,0-2.78.05-4.17,0-.24.25-.47.39-.7l.35.13v2.74c0,1.52,0,3,0,4.55,0,.22-.27.43-.42.65Z"/><path class="cls-17" d="M379.71,98v7.7c-1.2.34-.5-.74-.87-1.11a3.28,3.28,0,0,1-2.91,1.4,3,3,0,0,1-2.92-2.71,5.24,5.24,0,0,1,0-.56V98.05c.59-.23.77-.07.76.5,0,1.33,0,2.66,0,4,0,1.76.87,2.75,2.42,2.77a2.63,2.63,0,0,0,2.78-2.72c.05-1.33,0-2.66,0-4C379,98.11,379,97.8,379.71,98Z"/><path class="cls-15" d="M295.7,104.8l.35-.44a12.26,12.26,0,0,0,2.07.8,3.2,3.2,0,0,0,1.79-.13,1.26,1.26,0,0,0,.09-2.35,21.8,21.8,0,0,0-2.42-.89c-1.18-.46-1.63-1.08-1.53-2a2.26,2.26,0,0,1,2.09-1.91A3.87,3.87,0,0,1,301.39,99a5.12,5.12,0,0,1-.87,0,22.31,22.31,0,0,0-2.43-.38,1.13,1.13,0,0,0-1.22,1.14,1.83,1.83,0,0,0,.9,1.21,18.17,18.17,0,0,0,2.25.81c1.18.44,1.65,1.09,1.58,2.1a2.24,2.24,0,0,1-1.89,2A4.71,4.71,0,0,1,295.7,104.8Z"/><path class="cls-8" d="M135.93,105.8h-.75c0-1.5,0-3,0-4.45,0-1.85-.94-2.9-2.52-2.88a2.7,2.7,0,0,0-2.7,2.91c0,1.3,0,2.6,0,3.9,0,.22-.28.43-.43.65l-.3-.13V98c1.18-.25.53.74.87,1.12a3.38,3.38,0,0,1,2.76-1.35,3,3,0,0,1,3.1,3C136,102.42,135.93,104.06,135.93,105.8Z"/><path class="cls-8" d="M268.5,105.79h-.75c0-1.52,0-3,0-4.47,0-1.8-.9-2.82-2.46-2.85a2.69,2.69,0,0,0-2.76,2.85c0,1.29,0,2.59,0,3.89,0,.52-.13.76-.72.56V98c.64,0,.64,0,.82,1.15a3.26,3.26,0,0,1,2.8-1.39,2.92,2.92,0,0,1,3.06,2.93C268.54,102.39,268.5,104.05,268.5,105.79Z"/><path class="cls-8" d="M224.62,105.74c0-1.48,0-3,0-4.43,0-1.8-.92-2.82-2.48-2.84a2.69,2.69,0,0,0-2.75,2.86c0,1.3,0,2.6,0,3.89,0,.55-.16.74-.77.53,0-2.42,0-4.86,0-7.29,0-.2.31-.39.48-.58l.22.17.06,1.19a3.47,3.47,0,0,1,3-1.44,2.87,2.87,0,0,1,2.94,2.75c.08,1.6,0,3.21,0,4.82,0,.2-.29.39-.44.59Z"/><path class="cls-17" d="M190.08,104.48a4,4,0,0,1-5.82.5,4.22,4.22,0,0,1-.07-6.06,4,4,0,0,1,5.93.39l-.5.48-.51-.43a3.12,3.12,0,0,0-4.43.12,3.58,3.58,0,0,0-.05,4.74,3.15,3.15,0,0,0,4.49.27C189.45,104.23,189.76,103.79,190.08,104.48Z"/><path class="cls-17" d="M65.9,104.47A4,4,0,0,1,60,105a4.2,4.2,0,0,1,0-6,4,4,0,0,1,5.85.35l-.47.5a3.75,3.75,0,0,0-3-1.25A3.16,3.16,0,0,0,59.67,101a3.51,3.51,0,0,0,1.39,3.75,3.25,3.25,0,0,0,3.73-.19C65.09,104.38,65.38,103.7,65.9,104.47Z"/><path class="cls-16" d="M109.51,25.5h-7.45V23.94h7.45Z"/><path class="cls-16" d="M280,24v1.53h-7.47V24Z"/><path class="cls-10" d="M6.19,105.74c-.76.27-.83-.06-.83-.59,0-2.78,0-5.56,0-8.35v-1c-1.11,0-2.15,0-3.19,0-.22,0-.44-.27-.66-.41l.14-.27H9.84c.15.48,0,.72-.53.7-1,0-2,0-3.12,0Z"/><path class="cls-15" d="M273.28,98.08c.64-.31.89,0,1.1.47.73,1.77,1.48,3.53,2.22,5.29.13.3.28.6.5,1.08.95-2.2,1.85-4.24,2.71-6.29.2-.47.37-.86,1.1-.59-.41.94-.82,1.88-1.24,2.82-.68,1.52-1.35,3-2.05,4.56a.82.82,0,0,1-.49.43.73.73,0,0,1-.54-.35C275.47,103,274.38,100.56,273.28,98.08Z"/><path class="cls-15" d="M245.36,95.34c-2.59-.25-3.16.28-3,2.51.88.08,1.77.16,2.66.27a3.72,3.72,0,0,1,0,.5h-2.66v7.08c-.59.26-.83.16-.82-.48,0-1.85,0-3.71,0-5.56v-1l-1-.09c-.05-.59-.05-.59,1-.75a12,12,0,0,1,.15-1.46,2.27,2.27,0,0,1,3-1.79C244.89,94.67,245,95,245.36,95.34Z"/><path class="cls-15" d="M49.92,95.37c-2.54-.32-3.16.28-2.94,2.47.88.09,1.77.18,2.65.3a3.55,3.55,0,0,1,0,.49H46.91v7.11c-.59.24-.77.06-.77-.54,0-1.85,0-3.71,0-5.56v-1l-1-.06c0-.63,0-.63,1-.72.06-.5.07-1,.18-1.52a2.28,2.28,0,0,1,3-1.77C49.49,94.67,49.61,95,49.92,95.37Z"/><path class="cls-15" d="M52,97.82c1.1.12,2,.21,2.82.33a3.55,3.55,0,0,1,0,.49H52.15v7.09c-.63.24-.81,0-.8-.54,0-1.85,0-3.71,0-5.56v-1l-1.06,0c0-.63,0-.63,1-.72a14.93,14.93,0,0,1,.2-1.62,2.27,2.27,0,0,1,3-1.67c.21.08.34.36.41.44a6.42,6.42,0,0,0-2.36.8C52.11,96.22,52.17,97.15,52,97.82Z"/><path class="cls-15" d="M335.28,98.83c-.39-.42-1.34.24-1.09-.84l1-.09a16,16,0,0,1,.24-1.75,2.29,2.29,0,0,1,3-1.53c.19.07.3.37.4.5-.85.18-1.76.11-2.22.53s-.53,1.35-.74,2c1,.69,2.21-.21,2.93.65l-.06.3h-2.68v7.14c-.78.05-.8.05-.8-.59Z"/><path class="cls-12" d="M142.16,98.62H139.5c0,1.86-.05,3.67,0,5.48,0,.81.69,1.22,1.61,1.16.33,0,.66-.11,1.27-.22-.27.38-.36.68-.55.77a2.15,2.15,0,0,1-3.12-2c0-1.69,0-3.39,0-5.14l-1-.08c-.05-.62-.05-.62,1-.7V95.49l.81,0v2.44C142.17,98.13,142.17,98.13,142.16,98.62Z"/><path class="cls-12" d="M100.26,105.25c-.15.19-.26.48-.45.57a2.16,2.16,0,0,1-3.11-2c0-1.69,0-3.38,0-5.13l-1.06,0c0-.62,0-.62,1-.72V95.54c.77-.08.77-.08.77.83v1.44c.91.46,2.06-.31,2.82.47l-.06.33H97.47c0,1.86,0,3.65,0,5.42,0,.9.74,1.33,1.74,1.23a8.55,8.55,0,0,0,.88-.17Z"/><path class="cls-12" d="M307.36,98.62h-1.1c-.16-1,.66-.51,1.06-.78V95.49l.8,0v2.44c1,.22,2-.19,2.83.27l-.08.44h-2.73c0,1.89-.05,3.7,0,5.5,0,.84.74,1.25,1.7,1.16.3,0,.59-.11,1.18-.23-.27.4-.37.7-.56.78a2.15,2.15,0,0,1-3.12-2C307.34,102.12,307.36,100.43,307.36,98.62Z"/><path class="cls-12" d="M200.62,95.47h.77v2.41c2.7.29,2.7.29,2.7.73h-2.66c0,1.89-.06,3.73,0,5.56,0,.88.8,1.1,1.57,1.09a9.4,9.4,0,0,0,1.25-.21c-.23.36-.31.67-.5.76a2.16,2.16,0,0,1-3.14-2c0-1.7,0-3.4,0-5.15l-1.07-.1c-.26-1.07.76-.38,1.05-.85Z"/><path class="cls-18" d="M80.27,94.62v5.64c0,1.64,0,3.28,0,4.92,0,.57-.15.82-.85.58v-2.25c0-2.75,0-5.5,0-8.25C79.41,94.66,79.54,94.37,80.27,94.62Z"/><path class="cls-18" d="M176.85,105.76c0-3.59,0-7.14,0-10.7,0-.21.36-.42.55-.63l.28.19V101c0,1.39,0,2.78,0,4.17C177.72,105.77,177.53,106,176.85,105.76Z"/><path class="cls-15" d="M290.77,105.73c0-2.43,0-4.87,0-7.31,0-.19.29-.37.45-.56l.28.15v2a4,4,0,0,1,3.37-2.21c.21.52.15.78-.46.91a3.32,3.32,0,0,0-2.86,3.27c-.07,1.07,0,2.16-.06,3.24,0,.23-.27.45-.42.68Z"/><path class="cls-16" d="M216.28,33.11l-.71-.14V30.68h1.81c.35,3.3-.06,4.53-2.23,5.36l-.43-.67C215.55,34.81,216.42,34.32,216.28,33.11Z"/><path class="cls-18" d="M180.53,97.82c.17.24.49.47.49.7,0,2.25,0,4.51,0,6.76,0,.23-.33.46-.51.69l-.26-.17V98.06Z"/><path class="cls-18" d="M206.11,97.83c.2.21.56.41.57.63,0,2.43,0,4.86,0,7.34h-.8V98Z"/><path class="cls-18" d="M271,97.83c.2.19.57.37.58.56,0,2.46,0,4.93,0,7.41h-.81V98.09Z"/><path class="cls-18" d="M303.68,105.77V98c.59-.22.84-.1.83.58q0,3.28,0,6.57C304.52,105.76,304.34,106,303.68,105.77Z"/><path class="cls-18" d="M67.73,105.78V98c.58-.22.84-.1.83.57q0,3.29,0,6.57C68.57,105.76,68.39,106,67.73,105.78Z"/><path class="cls-18" d="M56,105.72V98c.5-.16.83-.19.83.5,0,2.25,0,4.51,0,6.76,0,.23-.34.46-.51.69Z"/><path class="cls-13" d="M181.07,95.85h-.88l-.05-.91h.93Z"/><path class="cls-13" d="M303.65,95.91v-1l.88-.07.05,1Z"/><path class="cls-13" d="M67.71,94.92h.87v.93h-.87Z"/><path class="cls-13" d="M205.84,95.9v-1l.89-.06.05,1Z"/><path class="cls-13" d="M271.62,95.85h-.88l-.05-.91h.93Z"/><path class="cls-13" d="M56.86,95.84H56v-.92h.86Z"/><path class="cls-4" d="M445.18,16.53c-2.15,2.3-4.33,4.57-6.46,6.88-2.58,2.82-5.12,5.67-7.69,8.51-.43.08-1,0-1.27.27a12.42,12.42,0,0,0-2,1.86c-1.13,1.31-2.25,2.63-3.24,4a9.92,9.92,0,0,0-.88,2.36c-2.86,3.44-5.76,6.85-8.58,10.33-4.68,5.78-9.32,11.6-14,17.41-1.42,1.78-2.83,3.57-4.25,5.36-.14-.2-.3-.39-.43-.59a38.47,38.47,0,0,1-5.18-24A38.21,38.21,0,0,1,406,22.13c8.67-6.88,18.63-9.47,29.59-8.18A32.62,32.62,0,0,1,445.18,16.53Z"/><path class="cls-19" d="M396.79,73.55c1.42-1.79,2.83-3.58,4.25-5.36,4.66-5.81,9.3-11.63,14-17.41,2.82-3.48,5.72-6.89,8.58-10.33l8,6.67a6.85,6.85,0,0,1-.51.77c-2.69,2.94-5.36,5.89-8.07,8.8-3.29,3.52-6.59,7-9.95,10.48-3.83,3.92-7.74,7.76-11.62,11.62a4.94,4.94,0,0,1-.75.51l-4.82-4.11Z"/><path class="cls-20" d="M400.7,79.3a4.94,4.94,0,0,0,.75-.51c3.88-3.86,7.79-7.7,11.62-11.62,3.36-3.44,6.66-7,9.95-10.48,2.71-2.91,5.38-5.86,8.07-8.8a6.85,6.85,0,0,0,.51-.77,3,3,0,0,0,1.19,0,3.93,3.93,0,0,0,1.33-1c1.48-1.74,2.95-3.5,4.34-5.31.46-.6,1-1.32.55-2.2a2.44,2.44,0,0,0,.61-.38c2.22-2.59,4.45-5.19,6.63-7.81,2.52-3,5-6.07,7.51-9.11l2.49,1.7.06.34a11.22,11.22,0,0,0-1,.95c-2.31,2.65-4.58,5.34-6.92,8s-4.56,4.95-6.83,7.43a1.45,1.45,0,0,0-.44.69,5.9,5.9,0,0,1-1.83,3.25c-.69.74-1.26,1.61-2,2.3-1,.93-2,2.1-3.14,2.49a6.25,6.25,0,0,0-2.46,1.69c-.51.48-.93,1.07-1.43,1.57C424.92,57,419.6,62.3,414.21,67.54c-4.21,4.09-8.52,8.08-12.78,12.11l-.71-.22A.59.59,0,0,1,400.7,79.3Z"/><path class="cls-7" d="M435.11,35.45l.55.54a28.52,28.52,0,0,1-6.29,5.67,1,1,0,0,1-.5.22,3.56,3.56,0,0,1-.79-.24c.1-.27.12-.7.29-.78,2.63-1.2,4.49-3.33,6.51-5.27A1.09,1.09,0,0,1,435.11,35.45Z"/><path class="cls-7" d="M456.25,23l-2.49-1.7q2.89-3.87,5.78-7.76c.66-.89,1.29-1.79,1.94-2.69l2.63,2.25a4.34,4.34,0,0,1-.37.71c-1.53,2-3,4-4.61,5.88C458.21,20.85,457.21,21.92,456.25,23Z"/><path class="cls-18" d="M464.11,13.12l-2.63-2.25.36-.48,2.77,2.29c-.05.14-.1.28-.14.41Z"/><path class="cls-21" d="M464.11,13.12l.36,0c1.42,1.42,2.9,2.78,4.26,4.25a52.21,52.21,0,0,1,9.41,57.11A51.17,51.17,0,0,1,466,91.37a52.26,52.26,0,0,1-25.94,13,50.7,50.7,0,0,1-12.65.84,51.54,51.54,0,0,1-28.57-10.5c-2.47-1.88-4.67-4.13-7-6.23a7.32,7.32,0,0,1-.69-.87l2.47-1.47L394,86h0l.2-.2h0l.2-.19h0l.2-.19h0l.38-.19h0l.38-.37h0l.19-.19h0l.46-.19a.11.11,0,0,0,.1-.1l2.52-2.14,2.86-2.44c.38.4.76.82,1.16,1.2,8.55,8.18,18.72,12.07,30.56,11.29A38.11,38.11,0,0,0,459.5,79.61a39.19,39.19,0,0,0,6.41-43.78,36.92,36.92,0,0,0-9.6-12.47l-.06-.34c1-1.1,2-2.17,2.88-3.31,1.57-1.93,3.08-3.91,4.61-5.88A4.34,4.34,0,0,0,464.11,13.12ZM473,34.3l.13.15-1.7,2.44,3.26.72-4,1.59.57,1.34,6.1-2.37c0-1.28-.75-1.71-1.84-1.79a16.19,16.19,0,0,1-1.83-.38,14.27,14.27,0,0,1,1.2-1.59A1.62,1.62,0,0,0,475,32l-6.12,2.38c.19.5.35.91.53,1.36L471.2,35Zm-35.12,67.87a3.45,3.45,0,1,0,.22-6.9,3.59,3.59,0,0,0-3.68,3.43A3.39,3.39,0,0,0,437.88,102.17Zm-30.31-7.64a6.12,6.12,0,0,0,.63-.06A2.26,2.26,0,0,0,410,92.81a1.85,1.85,0,0,0-.69-2.15c-1-.74-2.11-1.35-3.22-2.06l-3.42,5.77,1.27.74L405,93.39c1.18.19,1.17,1.06,1.07,1.84-.14,1.19.54,1.63,1.5,2Zm40.84-2.35c1.06,2,2.11,3.87,3.18,5.85l1.29-.68L452,95.54c.62-.72,1.2-.51,1.85-.14,1.46.83,1.49.81,2.72-.18L454.2,94c.66-1.37.55-2.34-.29-3.13s-1.69-.73-2.92-.07C450.15,91.22,449.31,91.69,448.41,92.18Zm21.21-61.26.64.26a2.12,2.12,0,0,0,2.3-.53,1.75,1.75,0,0,0,.55-2.1c-.56-1.21-1.28-2.35-1.93-3.52l-5.75,3.49.78,1.25,1.75-1a1.15,1.15,0,0,1,.27,1.72c-.62,1-.88,2,.26,2.84Zm8.63,34.6a30.32,30.32,0,0,0,.49-3.52,3.16,3.16,0,0,0-2.34-3.09,3.25,3.25,0,0,0-3.66,1.3c-.81,1.23-.78,2.66-1.08,4.06ZM428.11,100c-.05,1-.09,1.74-.13,2.62l1.46.16c.16-2.26.32-4.43.49-6.67L428.48,96c-.1.92-.18,1.73-.27,2.62l-2.62-.22c.06-.9.12-1.72.17-2.58l-1.48-.12c-.16,2.24-.32,4.41-.48,6.65l1.48.1c.07-.92.14-1.74.22-2.64Zm41.32-29.37c-.8,1.53-1.55,3-2.33,4.48L473,78.21l2.34-4.51-1.17-.59-1.67,3.15-1.2-.59,1.42-2.81-1.17-.56c-.5,1-1,1.83-1.46,2.74L469,74.43l1.58-3.14Zm-3.71,11.16-1.72,2-2-1.68c-.35.42-.63.74-1,1.12l5.08,4.33.95-1.14-2-1.73c.58-.69,1.14-1.33,1.71-2l2.07,1.7.91-1.15L464.7,79l-.95,1.13ZM411.79,91.91c-.47,1.18-.93,2.32-1.38,3.46a4.55,4.55,0,0,0-.23.8,2.53,2.53,0,0,0,1.8,3.1c1.53.59,2.83.24,3.51-1.1s1.15-2.7,1.74-4.11l-1.4-.56c-.48,1.2-.92,2.32-1.37,3.42s-1,1.4-1.91,1.09-1.14-1-.72-2.14.87-2.22,1.34-3.41Zm34,1.34c.45,1.29.89,2.48,1.28,3.68a1.36,1.36,0,0,1-1.18,2,1.38,1.38,0,0,1-1.51-1.1c-.44-1.18-.85-2.37-1.29-3.6l-1.43.51c.57,1.51,1,3,1.67,4.31a2.4,2.4,0,0,0,3.08,1.2c1.47-.39,2.42-1.35,2.2-2.66a45.2,45.2,0,0,0-1.32-4.83Zm22.34-71.94a1.3,1.3,0,0,0-2-.77c-1.1.47-2.28.76-3.42,1.13l-2.32.74-.08.3c.47.24,1.05.8,1.37.67a1.47,1.47,0,0,1,2,.67,14.26,14.26,0,0,0,.92,1.11c-.74,1.7-.74,1.7.4,2.49C466.08,25.52,467.13,23.4,468.15,21.31ZM460.6,84.65a3.62,3.62,0,0,0-3.14,1.9,1.82,1.82,0,0,0,.29,2.16,1.67,1.67,0,0,0,1.93.53c.58-.2,1.12-.53,1.71-.7a2.55,2.55,0,0,1,1,.11c-.11.32-.12.79-.35.94a17.25,17.25,0,0,1-2,1l.06,1.15a4,4,0,0,0,3.42-1.76,1.84,1.84,0,0,0,0-2.33,1.78,1.78,0,0,0-2.23-.61,13.79,13.79,0,0,1-1.44.61,3,3,0,0,1-1-.11c.16-.33.23-.78.5-1a7.75,7.75,0,0,1,1.54-.65C460.71,85.49,460.66,85.1,460.6,84.65Zm-40.56,17c.41-1.73.8-3.42,1.2-5.13l2,.41.31-1.33-5.39-1.21-.31,1.31,1.95.5c-.4,1.77-.77,3.43-1.15,5.14ZM400.21,85.76l1.54,1.32c-1.12,1.38-2.21,2.71-3.33,4.1l1.14.92,3.36-4,1.6,1.22.84-1-4.27-3.5Zm69.57-16.13,6.31,2.23c.55-1.55,1.07-3,1.6-4.54l-1.27-.42L475.29,70l-5-1.73Zm7.83-21a1.85,1.85,0,0,0-1.88-1.77,1.81,1.81,0,0,0,.07,3.62A1.88,1.88,0,0,0,477.61,48.61ZM465.35,77.66l5.56,3.7.82-1.24-5.56-3.71Z"/><path class="cls-21" d="M396.79,73.55l-.91,1.64c-1.08,1.34-2.23,2.63-3.2,4-1.31,1.9-2.48,3.89-3.71,5.84A50.1,50.1,0,0,1,379,63.55c-3.07-16,.33-30.54,10.46-43.34A50.6,50.6,0,0,1,418.77,2,58.75,58.75,0,0,1,428.68.73a50.69,50.69,0,0,1,26.18,5.95,2.43,2.43,0,0,0,.52.17c-1.46,1.37-2.95,2.72-4.39,4.1-1.83,1.76-3.62,3.55-5.44,5.32a1.9,1.9,0,0,1-.37.26A32.62,32.62,0,0,0,435.54,14c-11-1.29-20.92,1.3-29.59,8.18A38.21,38.21,0,0,0,391.18,49a38.47,38.47,0,0,0,5.18,24C396.49,73.16,396.65,73.35,396.79,73.55Zm20.15-61.16L414.42,6.3l-1.33.58c.5,1.24.94,2.36,1.49,3.72-1.31-.77-2.4-1.35-3.42-2a1.59,1.59,0,0,0-2.19.09l2.51,6.08,1.34-.57-1.42-3.55A19.91,19.91,0,0,1,415,12.49,1.49,1.49,0,0,0,416.94,12.39Zm19.48-1.66,1.45.29c.17-.72.31-1.35.45-1.94,1.13-.25,1.31.59,1.59,1.3.54,1.36.6,1.4,2.12,1.39l-1-2.49A2.25,2.25,0,0,0,442.86,7a1.83,1.83,0,0,0-1.3-1.85c-1.21-.38-2.48-.62-3.77-.93Zm-8.76-3.3A3.33,3.33,0,0,0,424.18,4a3.47,3.47,0,0,0-3.59,3.47,3.54,3.54,0,0,0,7.07-.05ZM382.53,66.1l.45,1.39,2.56-.75c.29.9.53,1.67.78,2.49l-2.51.85.46,1.4,6.37-2.07L390.15,68l-2.49.74-.81-2.48,2.48-.85-.45-1.4Zm7,7.05,1.18-.55c.57,1.09,1.09,2.09,1.63,3.15l1.18-.6-2.28-4.49-6,3,2.31,4.54,1.16-.63-1.6-3.19,1.21-.59,1.44,2.77,1.15-.61C390.43,75,390,74.11,389.5,73.15Zm3.25-47.91-1-.79,2.14-2.82-1.06-.79c-1,1.36-2,2.65-3.05,4l5.3,4.05c1.06-1.37,2.06-2.69,3.1-4.05l-1-.78-2.21,2.83-1.06-.82,1.87-2.49-1-.79C394,23.6,393.45,24.36,392.75,25.24ZM405.88,14.9l2.66-1.65c-.24-.38-.44-.72-.68-1.11l-2.69,1.6c-.23-.38-.43-.71-.67-1.09l3-1.91-.72-1.09-4.27,2.63c1.18,1.93,2.33,3.78,3.5,5.68l4.34-2.66-.7-1.12L406.6,16ZM385.54,32l5.88,3.14.68-1.29-2.33-1.29L391,30.22l2.33,1.23.73-1.29L388.21,27l-.7,1.29,2.3,1.29-1.26,2.31-2.34-1.21C386,31.14,385.79,31.51,385.54,32ZM433.7,3.77c0,.44,0,.84-.07,1.23a24,24,0,0,1-.2,3,1.51,1.51,0,0,1-.88,1,1.63,1.63,0,0,1-1.41-.31A2.93,2.93,0,0,1,430.72,7c-.06-1.1,0-2.21,0-3.38h-1.4a47.91,47.91,0,0,0,0,4.8c.12,1.27,1.12,1.92,2.52,2s2.65-.43,2.89-1.62a48.51,48.51,0,0,0,.5-5.05ZM396.82,16.85c1.48,1.74,2.88,3.41,4.31,5.1l1.11-.95L401,19.48c.41-.37.79-.68,1.12-1A2.32,2.32,0,1,0,399,15C398.31,15.56,397.62,16.18,396.82,16.85Zm-6.38,21.32-5-1.77c.22-.67.41-1.25.62-1.91l-1.28-.41L383,39.26l1.28.46.7-1.89,5,1.73Zm-3.67,21.74-5.23.89c.09.52.17.93.27,1.44l5.19-.82c.12.67.24,1.27.37,1.95l1.33-.21c-.3-1.86-.59-3.62-.89-5.45l-1.33.25C386.57,58.62,386.66,59.19,386.77,59.91Zm-.25-11.25a1.81,1.81,0,1,0-3.61.07,1.81,1.81,0,0,0,3.61-.07Z"/><path class="cls-7" d="M401.44,79.81l-2.86,2.44-2.52,2.14a7.75,7.75,0,0,1,.71-1c1.3-1.34,2.63-2.65,4-4l.71.22A.86.86,0,0,1,401.44,79.81Z"/><path class="cls-7" d="M395.32,84.86l-.38.37Z"/><path class="cls-7" d="M394,86l-.39.2Z"/><path class="cls-7" d="M395,85.23l-.38.19Z"/><path class="cls-7" d="M396,84.49l-.46.19Z"/><path class="cls-7" d="M395.5,84.67l-.19.19Z"/><path class="cls-7" d="M394.39,85.6l-.2.19Z"/><path class="cls-7" d="M394.58,85.41l-.2.19Z"/><path class="cls-7" d="M394.21,85.78l-.2.2Z"/><path class="cls-4" d="M401.44,79.81a.86.86,0,0,0,0-.16c4.26-4,8.57-8,12.78-12.11C419.6,62.3,424.92,57,430.26,51.69c.5-.5.92-1.09,1.43-1.57a6.25,6.25,0,0,1,2.46-1.69c1.19-.39,2.16-1.56,3.14-2.49.74-.69,1.31-1.56,2-2.3a5.9,5.9,0,0,0,1.83-3.25,1.45,1.45,0,0,1,.44-.69c2.27-2.48,4.59-4.92,6.83-7.43s4.61-5.31,6.92-8a11.22,11.22,0,0,1,1-.95,36.92,36.92,0,0,1,9.6,12.47,39.19,39.19,0,0,1-6.41,43.78A38.11,38.11,0,0,1,433.16,92.3c-11.84.78-22-3.11-30.56-11.29C402.2,80.63,401.82,80.21,401.44,79.81Z"/><path class="cls-22" d="M473,34.3l-1.8.68-1.82.71c-.18-.45-.34-.86-.53-1.36L475,32a1.62,1.62,0,0,1-.05,2.46,14.27,14.27,0,0,0-1.2,1.59,16.19,16.19,0,0,0,1.83.38c1.09.08,1.8.51,1.84,1.79l-6.1,2.37-.57-1.34,4-1.59-3.26-.72,1.7-2.44Z"/><path class="cls-22" d="M437.88,102.17a3.39,3.39,0,0,1-3.46-3.47,3.59,3.59,0,0,1,3.68-3.43,3.45,3.45,0,1,1-.22,6.9ZM436,98.73a2,2,0,0,0,2,2.09,2.07,2.07,0,0,0-.11-4.14A1.92,1.92,0,0,0,436,98.73Z"/><path class="cls-22" d="M407.57,94.53v2.66c-1-.33-1.64-.77-1.5-2,.1-.78.11-1.65-1.07-1.84L404,95.11l-1.27-.74,3.42-5.77c1.11.71,2.21,1.32,3.22,2.06a1.85,1.85,0,0,1,.69,2.15,2.26,2.26,0,0,1-1.81,1.66A6.12,6.12,0,0,1,407.57,94.53Zm-.89-4-.94,1.65a6.59,6.59,0,0,0,1.52.8,1.33,1.33,0,0,0,1.13-.4c.15-.21,0-.85-.25-1.1A7.68,7.68,0,0,0,406.68,90.54Z"/><path class="cls-22" d="M448.41,92.18c.9-.49,1.74-1,2.58-1.4,1.23-.66,2.18-.63,2.92.07s.95,1.76.29,3.13l2.34,1.24c-1.23,1-1.26,1-2.72.18-.65-.37-1.23-.58-1.85.14l.91,1.81-1.29.68C450.52,96.05,449.47,94.14,448.41,92.18Zm2.86,2.12a6.45,6.45,0,0,0,1.49-.9,1.32,1.32,0,0,0,.21-1.18c-.09-.23-.72-.42-1.05-.34a7.52,7.52,0,0,0-1.56.77Z"/><path class="cls-22" d="M469.62,30.92l-1.13,2.39c-1.14-.88-.88-1.86-.26-2.84a1.15,1.15,0,0,0-.27-1.72l-1.75,1-.78-1.25L471.18,25c.65,1.17,1.37,2.31,1.93,3.52a1.75,1.75,0,0,1-.55,2.1,2.12,2.12,0,0,1-2.3.53ZM469.16,28a6.73,6.73,0,0,0,1,1.46,1.18,1.18,0,0,0,1.09.2,1.27,1.27,0,0,0,.39-1.12,6.42,6.42,0,0,0-.85-1.52Z"/><path class="cls-22" d="M478.25,65.52l-6.59-1.25c.3-1.4.27-2.83,1.08-4.06a3.25,3.25,0,0,1,3.66-1.3A3.16,3.16,0,0,1,478.74,62,30.32,30.32,0,0,1,478.25,65.52Zm-4.94-2.45,3.83.7c.25-1.09.56-2.07-.31-2.88a2,2,0,0,0-2.23-.4C473.47,61,473.4,62,473.31,63.07Z"/><path class="cls-22" d="M428.11,100l-2.61-.19c-.08.9-.15,1.72-.22,2.64l-1.48-.1c.16-2.24.32-4.41.48-6.65l1.48.12c-.05.86-.11,1.68-.17,2.58l2.62.22c.09-.89.17-1.7.27-2.62l1.45.11c-.17,2.24-.33,4.41-.49,6.67l-1.46-.16C428,101.77,428.06,101,428.11,100Z"/><path class="cls-22" d="M469.43,70.66l1.14.63L469,74.43l1.13.61c.49-.91,1-1.79,1.46-2.74l1.17.56-1.42,2.81,1.2.59,1.67-3.15,1.17.59L473,78.21l-5.93-3.07C467.88,73.63,468.63,72.19,469.43,70.66Z"/><path class="cls-22" d="M465.72,81.82l-2-1.72L464.7,79l5.06,4.31-.91,1.15-2.07-1.7c-.57.67-1.13,1.31-1.71,2l2,1.73-.95,1.14L461,83.27c.33-.38.61-.7,1-1.12l2,1.68Z"/><path class="cls-22" d="M411.79,91.91l1.38.55c-.47,1.19-.92,2.29-1.34,3.41s-.17,1.82.72,2.14,1.48,0,1.91-1.09.89-2.22,1.37-3.42l1.4.56c-.59,1.41-1.08,2.8-1.74,4.11s-2,1.69-3.51,1.1a2.53,2.53,0,0,1-1.8-3.1,4.55,4.55,0,0,1,.23-.8C410.86,94.23,411.32,93.09,411.79,91.91Z"/><path class="cls-22" d="M445.81,93.25l1.5-.53a45.2,45.2,0,0,1,1.32,4.83c.22,1.31-.73,2.27-2.2,2.66a2.4,2.4,0,0,1-3.08-1.2c-.64-1.36-1.1-2.8-1.67-4.31l1.43-.51c.44,1.23.85,2.42,1.29,3.6a1.38,1.38,0,0,0,1.51,1.1,1.36,1.36,0,0,0,1.18-2C446.7,95.73,446.26,94.54,445.81,93.25Z"/><path class="cls-22" d="M468.15,21.31c-1,2.09-2.07,4.21-3.11,6.34-1.14-.79-1.14-.79-.4-2.49a14.26,14.26,0,0,1-.92-1.11,1.47,1.47,0,0,0-2-.67c-.32.13-.9-.43-1.37-.67l.08-.3,2.32-.74c1.14-.37,2.32-.66,3.42-1.13A1.3,1.3,0,0,1,468.15,21.31Zm-2.06.71-1.93.57L465.37,24c.29-.68.55-1.26.81-1.84l.11-.11Z"/><path class="cls-22" d="M460.6,84.65c.06.45.11.84.16,1.23a7.75,7.75,0,0,0-1.54.65c-.27.19-.34.64-.5,1a3,3,0,0,0,1,.11,13.79,13.79,0,0,0,1.44-.61,1.78,1.78,0,0,1,2.23.61,1.84,1.84,0,0,1,0,2.33,4,4,0,0,1-3.42,1.76L460,90.55a17.25,17.25,0,0,0,2-1c.23-.15.24-.62.35-.94a2.55,2.55,0,0,0-1-.11c-.59.17-1.13.5-1.71.7a1.67,1.67,0,0,1-1.93-.53,1.82,1.82,0,0,1-.29-2.16A3.62,3.62,0,0,1,460.6,84.65Z"/><path class="cls-22" d="M420,101.67l-1.43-.31c.38-1.71.75-3.37,1.15-5.14l-1.95-.5.31-1.31,5.39,1.21L423.2,97l-2-.41C420.84,98.25,420.45,99.94,420,101.67Z"/><path class="cls-22" d="M400.21,85.76l.88-1,4.27,3.5-.84,1-1.6-1.22-3.36,4-1.14-.92c1.12-1.39,2.21-2.72,3.33-4.1Z"/><path class="cls-22" d="M469.78,69.63l.52-1.38,5,1.73,1.13-3.08,1.27.42c-.53,1.52-1.05,3-1.6,4.54Z"/><path class="cls-22" d="M477.61,48.61a1.88,1.88,0,0,1-1.81,1.85,1.81,1.81,0,1,1,1.81-1.85Z"/><path class="cls-22" d="M465.35,77.66l.82-1.25,5.56,3.71-.82,1.24Z"/><path class="cls-22" d="M416.94,12.39a1.49,1.49,0,0,1-2,.1,19.91,19.91,0,0,0-3.55-1.87l1.42,3.55-1.34.57L409,8.66a1.59,1.59,0,0,1,2.19-.09c1,.68,2.11,1.26,3.42,2-.55-1.36-1-2.48-1.49-3.72l1.33-.58Z"/><path class="cls-22" d="M436.42,10.73l1.37-6.56c1.29.31,2.56.55,3.77.93A1.83,1.83,0,0,1,442.86,7,2.25,2.25,0,0,1,441,9.28l1,2.49c-1.52,0-1.58,0-2.12-1.39-.28-.71-.46-1.55-1.59-1.3-.14.59-.28,1.22-.45,1.94ZM439,5.83l-.39,1.85a6.73,6.73,0,0,0,1.68.27,1.27,1.27,0,0,0,1-.72,1.34,1.34,0,0,0-.63-1A6.15,6.15,0,0,0,439,5.83Z"/><path class="cls-22" d="M427.66,7.43A3.54,3.54,0,1,1,424.18,4,3.33,3.33,0,0,1,427.66,7.43Zm-3.53,2.08a2,2,0,0,0,2-2,2.12,2.12,0,0,0-2.06-2.18,2,2,0,0,0-2,2A2,2,0,0,0,424.13,9.51Z"/><path class="cls-22" d="M382.53,66.1l6.35-2,.45,1.4-2.48.85.81,2.48,2.49-.74.49,1.37-6.37,2.07-.46-1.4,2.51-.85c-.25-.82-.49-1.59-.78-2.49l-2.56.75Z"/><path class="cls-22" d="M389.5,73.15c.49,1,.93,1.84,1.41,2.81l-1.15.61-1.44-2.77-1.21.59,1.6,3.19-1.16.63-2.31-4.54,6-3,2.28,4.49-1.18.6c-.54-1.06-1.06-2.06-1.63-3.15Z"/><path class="cls-22" d="M392.75,25.24c.7-.88,1.28-1.64,1.92-2.45l1,.79-1.87,2.49,1.06.82,2.21-2.83,1,.78c-1,1.36-2,2.68-3.1,4.05l-5.3-4.05c1-1.35,2-2.64,3.05-4l1.06.79-2.14,2.82Z"/><path class="cls-22" d="M405.88,14.9,406.6,16l3.07-1.86.7,1.12L406,18c-1.17-1.9-2.32-3.75-3.5-5.68l4.27-2.63.72,1.09-3,1.91c.24.38.44.71.67,1.09l2.69-1.6c.24.39.44.73.68,1.11Z"/><path class="cls-22" d="M385.54,32c.25-.48.44-.85.67-1.31l2.34,1.21,1.26-2.31-2.3-1.29.7-1.29,5.89,3.16-.73,1.29L391,30.22l-1.27,2.33,2.33,1.29-.68,1.29Z"/><path class="cls-22" d="M433.7,3.77h1.55a48.51,48.51,0,0,1-.5,5.05c-.24,1.19-1.4,1.71-2.89,1.62s-2.4-.73-2.52-2a47.91,47.91,0,0,1,0-4.8h1.4c0,1.17,0,2.28,0,3.38a2.93,2.93,0,0,0,.42,1.64,1.63,1.63,0,0,0,1.41.31,1.51,1.51,0,0,0,.88-1,24,24,0,0,0,.2-2.95C433.66,4.61,433.68,4.21,433.7,3.77Z"/><path class="cls-22" d="M396.82,16.85c.8-.67,1.49-1.29,2.22-1.86a2.32,2.32,0,1,1,3.1,3.45c-.33.36-.71.67-1.12,1L402.24,21l-1.11.95C399.7,20.26,398.3,18.59,396.82,16.85Zm3.45,1.77a14.13,14.13,0,0,0,1.14-1.92c.06-.15-.54-.82-.7-.77a12.78,12.78,0,0,0-2,.87Z"/><path class="cls-22" d="M390.44,38.17,390,39.56l-5-1.73-.7,1.89L383,39.26l1.82-5.18,1.28.41c-.21.66-.4,1.24-.62,1.91Z"/><path class="cls-22" d="M386.77,59.91c-.11-.72-.2-1.29-.29-1.95l1.33-.25c.3,1.83.59,3.59.89,5.45l-1.33.21c-.13-.68-.25-1.28-.37-1.95l-5.19.82c-.1-.51-.18-.92-.27-1.44Z"/><path class="cls-22" d="M386.52,48.66a1.81,1.81,0,0,1-3.61.07,1.81,1.81,0,1,1,3.61-.07Z"/><path class="cls-21" d="M436,98.73a1.92,1.92,0,0,1,1.92-2,2.07,2.07,0,0,1,.11,4.14A2,2,0,0,1,436,98.73Z"/><path class="cls-21" d="M406.68,90.54a7.68,7.68,0,0,1,1.46.95c.23.25.4.89.25,1.1a1.33,1.33,0,0,1-1.13.4,6.59,6.59,0,0,1-1.52-.8Z"/><path class="cls-21" d="M451.27,94.3l-.91-1.65a7.52,7.52,0,0,1,1.56-.77c.33-.08,1,.11,1.05.34a1.32,1.32,0,0,1-.21,1.18A6.45,6.45,0,0,1,451.27,94.3Z"/><path class="cls-21" d="M469.16,28l1.6-1a6.42,6.42,0,0,1,.85,1.52,1.27,1.27,0,0,1-.39,1.12,1.18,1.18,0,0,1-1.09-.2A6.73,6.73,0,0,1,469.16,28Z"/><path class="cls-21" d="M473.31,63.07c.09-1.08.16-2.1,1.29-2.58a2,2,0,0,1,2.23.4c.87.81.56,1.79.31,2.88Z"/><path class="cls-5" d="M466.18,22.11c-.26.58-.52,1.16-.81,1.84l-1.21-1.36,1.93-.57Z"/><path class="cls-5" d="M466.09,22l.2,0-.11.11Z"/><path class="cls-21" d="M439,5.83a6.15,6.15,0,0,1,1.61.38,1.34,1.34,0,0,1,.63,1,1.27,1.27,0,0,1-1,.72,6.73,6.73,0,0,1-1.68-.27Z"/><path class="cls-21" d="M424.13,9.51a2,2,0,0,1-2-2.11,2,2,0,0,1,2-2,2.12,2.12,0,0,1,2.06,2.18A2,2,0,0,1,424.13,9.51Z"/><path class="cls-21" d="M400.27,18.62l-1.53-1.82a12.78,12.78,0,0,1,2-.87c.16,0,.76.62.7.77A14.13,14.13,0,0,1,400.27,18.62Z"/></g></g></svg>